Coordinates
version=1
nRows=40
nColumns=30
inDegrees=yes

Units are S.I. units (second, meters, Newtons, ...)
Angles are in degrees.

endheader
time	floatyaw	floatroll	floatpitch	floatx	floaty	floatz	pro_sup_l	deviation_l	flexion_l	cmc_flexion_l	cmc_abduction_l	mp_flexion_l	ip_flexion_l	2mcp_flexion_l	2mcp_abduction_l	2pm_flexion_l	2md_flexion_l	3mcp_flexion_l	3mcp_abduction_l	3pm_flexion_l	3md_flexion_l	4mcp_flexion_l	4mcp_abduction_l	4pm_flexion_l	4md_flexion_l	5mcp_flexion_l	5mcp_abduction_l	5pm_flexion_l	5md_flexion_l
-0.995000	-160.147433	-5.066637	-73.570646	0.080725	-0.181958	-0.014170	99.954398	2.928636	1.124392	13.959401	9.302166	-25.419046	-41.076432	28.184451	5.958554	41.599697	28.407642	21.642450	3.894888	42.949181	28.771087	10.636444	-4.259893	51.234735	35.053538	-1.545484	-6.571575	60.928731	40.534107
-0.985000	-160.147433	-5.066637	-73.570646	0.080726	-0.181953	-0.014172	99.955796	2.927683	1.127615	13.959647	9.260966	-25.412781	-41.062436	28.176307	5.962880	41.614107	28.430183	21.640199	3.890740	42.969715	28.785809	10.631292	-4.256439	51.237153	35.057382	-1.546984	-6.573746	60.933841	40.524218
-0.975000	-160.147433	-5.066637	-73.570646	0.080725	-0.181947	-0.014173	99.969492	2.932067	1.127659	13.962916	9.215911	-25.409487	-41.055359	28.165913	5.970012	41.639659	28.452345	21.635000	3.886036	43.006383	28.806761	10.628904	-4.254099	51.248707	35.064159	-1.538216	-6.577276	60.942940	40.515640
-0.965000	-160.147433	-5.066637	-73.570646	0.080723	-0.181940	-0.014173	99.991036	2.940261	1.126552	13.969125	9.177748	-25.408468	-41.054106	28.152428	5.979448	41.671931	28.470876	21.628045	3.881271	43.049066	28.829469	10.628550	-4.253356	51.265137	35.071786	-1.525288	-6.580344	60.953901	40.511103
-0.955000	-160.147433	-5.066637	-73.570646	0.080722	-0.181931	-0.014173	100.012122	2.948527	1.126959	13.976285	9.152008	-25.409038	-41.055455	28.138011	5.989264	41.701448	28.482198	21.621037	3.876942	43.084554	28.846991	10.628079	-4.254112	51.281023	35.077166	-1.517428	-6.580664	60.963495	40.512598
-0.945000	-160.147433	-5.066637	-73.570646	0.080724	-0.181922	-0.014174	100.024382	2.952670	1.130990	13.980860	9.137711	-25.410874	-41.055630	28.127445	5.996830	41.717187	28.483300	21.616027	3.873719	43.100931	28.852237	10.625281	-4.255648	51.291239	35.077044	-1.521621	-6.576952	60.968427	40.519819
-0.935000	-160.147433	-5.066637	-73.570646	0.080729	-0.181913	-0.014179	100.023300	2.950163	1.139216	13.978913	9.129791	-25.413855	-41.052162	28.126146	6.000028	41.711145	28.472674	21.614753	3.872351	43.092391	28.841414	10.619341	-4.256957	51.292249	35.069345	-1.538505	-6.569954	60.966568	40.529383
-0.925000	-160.147433	-5.066637	-73.570646	0.080738	-0.181904	-0.014187	100.010205	2.941502	1.150227	13.967737	9.123635	-25.417506	-41.044998	28.137813	5.998347	41.682074	28.451049	21.617916	3.873316	43.062298	28.816666	10.611807	-4.257263	51.283014	35.054324	-1.561571	-6.562368	60.957977	40.535503
-0.915000	-160.147433	-5.066637	-73.570646	0.080749	-0.181895	-0.014196	99.991180	2.929970	1.161151	13.947283	9.118843	-25.420590	-41.036075	28.162567	5.993235	41.636920	28.421866	21.624674	3.876481	43.022570	28.786095	10.606227	-4.256387	51.265356	35.034955	-1.580324	-6.557581	60.945257	40.532304
-0.905000	-160.147433	-5.066637	-73.570646	0.080760	-0.181884	-0.014204	99.973528	2.919933	1.169156	13.920638	9.119731	-25.421487	-41.027660	28.195872	5.987486	41.589307	28.391350	21.632486	3.881023	42.989044	28.760684	10.606151	-4.254742	51.243586	35.016163	-1.586002	-6.557900	60.932863	40.516981
-0.895000	-160.147433	-5.066637	-73.570646	0.080768	-0.181874	-0.014207	99.962015	2.914698	1.173191	13.893313	9.132055	-25.419527	-41.020846	28.228761	5.983958	41.555198	28.367620	21.637595	3.885679	42.974624	28.749444	10.612432	-4.253059	51.223317	35.003062	-1.576747	-6.563326	60.925476	40.492011
-0.885000	-160.147433	-5.066637	-73.570646	0.080772	-0.181864	-0.014205	99.957137	2.915169	1.174663	13.871646	9.157863	-25.416485	-41.015642	28.250252	5.984330	41.546902	28.358348	21.636399	3.889175	42.983500	28.755222	10.621726	-4.252056	51.209772	34.998977	-1.559026	-6.571604	60.926231	40.464843
-0.875000	-160.147433	-5.066637	-73.570646	0.080774	-0.181857	-0.014197	99.956025	2.919856	1.176308	13.860875	9.192093	-25.416759	-41.012478	28.251933	5.988577	41.567805	28.367458	21.627448	3.890653	43.009481	28.773453	10.627710	-4.252224	51.206301	35.004299	-1.544225	-6.579478	60.935817	40.444967
-0.865000	-160.147433	-5.066637	-73.570646	0.080774	-0.181853	-0.014187	99.954831	2.926011	1.179960	13.863342	9.223760	-25.425279	-41.013233	28.232715	5.995372	41.610722	28.392702	21.612974	3.889988	43.039364	28.794535	10.624626	-4.253724	51.213679	35.016700	-1.542321	-6.584345	60.952784	40.439918
-0.855000	-160.147433	-5.066637	-73.570646	0.080773	-0.181855	-0.014179	99.950910	2.931175	1.185078	13.877390	9.241317	-25.443921	-41.020061	28.200501	6.002960	41.661257	28.426044	21.598543	3.887893	43.059372	28.808528	10.610823	-4.256305	51.230284	35.032421	-1.556539	-6.585362	60.974423	40.452240
-0.845000	-160.147433	-5.066637	-73.570646	0.080773	-0.181862	-0.014173	99.943865	2.934377	1.189429	13.897572	9.238353	-25.468927	-41.032700	28.168916	6.009897	41.704384	28.457043	21.590345	3.885669	43.061212	28.809673	10.589627	-4.259306	51.252793	35.047796	-1.582253	-6.583459	60.997367	40.478578
-0.835000	-160.147433	-5.066637	-73.570646	0.080773	-0.181872	-0.014169	99.935340	2.936361	1.191415	13.916531	9.215656	-25.491823	-41.046964	28.150471	6.015349	41.730413	28.477343	21.591390	3.884543	43.045089	28.798653	10.566839	-4.261807	51.277139	35.060341	-1.610579	-6.580385	61.017714	40.511020
-0.825000	-160.147433	-5.066637	-73.570646	0.080774	-0.181881	-0.014166	99.927864	2.938726	1.192046	13.928015	9.179125	-25.503860	-41.056295	28.150282	6.019056	41.737276	28.483795	21.599133	3.884869	43.019021	28.781904	10.546794	-4.262972	51.299660	35.069176	-1.633883	-6.577481	61.031323	40.540059
-0.815000	-160.147433	-5.066637	-73.570646	0.080775	-0.181884	-0.014162	99.923274	2.942510	1.194792	13.929417	9.136545	-25.500984	-41.055384	28.164354	6.021221	41.728954	28.478796	21.606481	3.885816	42.995258	28.768573	10.530099	-4.262442	51.318129	35.074822	-1.649309	-6.574986	61.034756	40.558039
-0.805000	-160.147433	-5.066637	-73.570646	0.080777	-0.181877	-0.014156	99.921407	2.947184	1.203367	13.922239	9.096062	-25.485846	-41.042979	28.183321	6.022341	41.712115	28.468109	21.605992	3.885893	42.985062	28.766380	10.514711	-4.260580	51.332016	35.078502	-1.658308	-6.572202	61.026433	40.561601
-0.795000	-160.147433	-5.066637	-73.570646	0.080778	-0.181861	-0.014148	99.919802	2.950696	1.219184	13.910280	9.066008	-25.465856	-41.022009	28.198691	6.022951	41.693305	28.457725	21.594607	3.884007	42.993615	28.778051	10.499052	-4.258354	51.341672	35.081229	-1.663528	-6.568204	61.007153	40.552160
-0.785000	-160.147433	-5.066637	-73.570646	0.080779	-0.181838	-0.014141	99.914740	2.950557	1.240349	13.897055	9.053700	-25.449357	-40.997617	28.207129	6.023383	41.677705	28.451514	21.575625	3.880291	43.017452	28.800012	10.484169	-4.256873	51.347204	35.083215	-1.666265	-6.562552	60.979787	40.534649
-0.775000	-160.147433	-5.066637	-73.570646	0.080780	-0.181814	-0.014135	99.903210	2.945280	1.262711	13.884365	9.062361	-25.442690	-40.975034	28.210423	6.023796	41.668931	28.450566	21.556485	3.876089	43.046277	28.824238	10.473028	-4.256825	51.348314	35.084064	-1.666408	-6.555697	60.948745	40.515631
-0.765000	-160.147433	-5.066637	-73.570646	0.080780	-0.181793	-0.014131	99.884687	2.935327	1.281960	13.872651	9.088214	-25.449047	-40.958472	28.212375	6.024482	41.668815	28.453802	21.544137	3.873185	43.068384	28.842258	10.467884	-4.258189	51.345277	35.083498	-1.664132	-6.549012	60.919569	40.501579
-0.755000	-160.147433	-5.066637	-73.570646	0.080780	-0.181781	-0.014130	99.861554	2.922968	1.295307	13.862057	9.120588	-25.468175	-40.950820	28.215883	6.026028	41.676785	28.458883	21.541384	3.872795	43.076337	28.848892	10.468311	-4.260371	51.339878	35.081838	-1.661220	-6.544410	60.898201	40.497314
-0.745000	-160.147433	-5.066637	-73.570646	0.080779	-0.181776	-0.014132	99.837997	2.911156	1.301944	13.852785	9.145962	-25.496141	-40.953370	28.222248	6.028980	41.689447	28.462858	21.546470	3.874959	43.069566	28.843690	10.471622	-4.262637	51.334971	35.079700	-1.660600	-6.543582	60.889357	40.504433
-0.735000	-160.147433	-5.066637	-73.570646	0.080779	-0.181779	-0.014137	99.818384	2.902119	1.302601	13.844560	9.154169	-25.525745	-40.965310	28.232058	6.033274	41.701281	28.462907	21.555381	3.878584	43.053105	28.829972	10.475050	-4.264508	51.332769	35.077330	-1.664482	-6.547141	60.894246	40.520332
-0.725000	-160.147433	-5.066637	-73.570646	0.080779	-0.181785	-0.014144	99.806368	2.896527	1.299077	13.836322	9.143504	-25.548712	-40.983466	28.245496	6.038035	41.706666	28.457626	21.564421	3.881990	43.034329	28.812879	10.477545	-4.265893	51.333248	35.074418	-1.672685	-6.554134	60.908970	40.538901
-0.715000	-160.147433	-5.066637	-73.570646	0.080781	-0.181788	-0.014156	99.804980	2.893500	1.294222	13.827102	9.121919	-25.559433	-41.003049	28.261134	6.042066	41.702472	28.448470	21.571132	3.883583	43.019947	28.797745	10.479673	-4.266955	51.334092	35.070657	-1.682529	-6.562208	60.925053	40.553221
-0.705000	-160.147433	-5.066637	-73.570646	0.080783	-0.181782	-0.014172	99.816836	2.891101	1.292006	13.817579	9.103515	-25.558234	-41.019636	28.274637	6.044714	41.689835	28.440127	21.573652	3.882387	43.014338	28.789060	10.482018	-4.267885	51.332439	35.066543	-1.690460	-6.568459	60.932603	40.558985
-0.695000	-160.147433	-5.066637	-73.570646	0.080786	-0.181763	-0.014194	99.843571	2.886917	1.296972	13.810790	9.102093	-25.551706	-41.031652	28.279589	6.046433	41.673887	28.438853	21.569966	3.878364	43.019028	28.789649	10.483625	-4.268845	51.327373	35.063689	-1.694380	-6.570660	60.925018	40.556634
-0.685000	-160.147433	-5.066637	-73.570646	0.080789	-0.181729	-0.014225	99.884603	2.878714	1.312918	13.811001	9.124865	-25.549484	-41.041748	28.270837	6.048547	41.661401	28.449250	21.558129	3.872511	43.032810	28.799962	10.481624	-4.270044	51.321528	35.064386	-1.695405	-6.568270	60.902934	40.550936
-0.675000	-160.147433	-5.066637	-73.570646	0.080788	-0.181682	-0.014270	99.936304	2.865446	1.341364	13.821312	9.169055	-25.559355	-41.055792	28.248179	6.052252	41.657713	28.471559	21.537334	3.866633	43.052268	28.817864	10.472035	-4.271738	51.320553	35.070620	-1.698058	-6.562663	60.874937	40.548491
-0.665000	-160.147433	-5.066637	-73.570646	0.080780	-0.181623	-0.014331	99.992615	2.848509	1.380540	13.841630	9.222670	-25.583522	-41.079617	28.217434	6.057516	41.664790	28.501403	21.508940	3.862640	43.072937	28.839344	10.451220	-4.273951	51.330489	35.083016	-1.708618	-6.556357	60.854030	40.554633
-0.655000	-160.147433	-5.066637	-73.570646	0.080762	-0.181553	-0.014413	100.047091	2.832562	1.425320	13.868239	9.269014	-25.617805	-41.115328	28.187675	6.062756	41.681134	28.532067	21.476595	3.861516	43.091140	28.860111	10.417408	-4.276065	51.354439	35.100166	-1.732203	-6.551688	60.851435	40.571097
-0.645000	-160.147433	-5.066637	-73.570646	0.080728	-0.181472	-0.014517	100.095182	2.825059	1.468258	13.894913	9.293012	-25.653648	-41.159443	28.166127	6.065637	41.702711	28.557447	21.445032	3.862546	43.105654	28.877280	10.371771	-4.276689	51.390461	35.118679	-1.769960	-6.549769	60.871111	40.595046
-0.635000	-160.147433	-5.066637	-73.570646	0.080676	-0.181373	-0.014641	100.135224	2.834169	1.501568	13.914521	9.286604	-25.681480	-41.203824	28.154033	6.064434	41.723993	28.573759	21.418082	3.863510	43.117673	28.890006	10.318735	-4.274137	51.431701	35.133985	-1.817652	-6.550425	60.907797	40.619524
-0.625000	-160.147433	-5.066637	-73.570646	0.080604	-0.181252	-0.014783	100.167431	2.865783	1.519334	13.920332	9.251122	-25.693717	-41.238392	28.146460	6.058931	41.739137	28.579664	21.397411	3.862015	43.128366	28.898485	10.265788	-4.267391	51.468259	35.141645	-1.865918	-6.553015	60.949003	40.635256
-0.615000	-160.147433	-5.066637	-73.570646	0.080513	-0.181101	-0.014942	100.191505	2.920988	1.518785	13.907199	9.196228	-25.686367	-41.253718	28.136685	6.050370	41.743523	28.575660	21.383264	3.857230	43.135605	28.902122	10.223268	-4.257011	51.489482	35.138669	-1.901630	-6.557303	60.979185	40.633656
-0.605000	-160.147433	-5.066637	-73.570646	0.080401	-0.180918	-0.015116	100.204564	2.995375	1.499795	13.873288	9.136478	-25.659153	-41.242495	28.122655	6.040704	41.735168	28.563464	21.376791	3.850855	43.132796	28.898600	10.203987	-4.245370	51.485956	35.124449	-1.909988	-6.563645	60.984267	40.610440
